# xmcd
#
# Track frame offsets: 
#        300
#        25354
#        46707
#        71985
#        99550
#        134265
#        166473
#        184990
#        204531
#        233555
#        263975
#        284778
#
# Disc length: 4646 seconds
#
# Revision: 0
# Processed by: cddbd v1.5.2PL0 Copyright (c) Steve Scherf et al.
# Submitted via: ExactAudioCopy v1.0b1
#
DISCID=b812220c
DTITLE=Blindside Blues Band - Keepers Of The Flame
DYEAR=2008
DGENRE=Blues Rock
TTITLE0=Keepers Of The Flame
TTITLE1=Sonic Love
TTITLE2=Jagged Edge
TTITLE3=Maybe I'm A Leo
TTITLE4=Lonesome Road
TTITLE5=Back Stabber
TTITLE6=Electric Wave
TTITLE7=I Wanna Be Free
TTITLE8=Bad Luck
TTITLE9=Hannah
TTITLE10=Bluesion
TTITLE11=Jam w Drum Solo
EXTD=
EXTT0=
EXTT1=
EXTT2=
EXTT3=
EXTT4=
EXTT5=
EXTT6=
EXTT7=
EXTT8=
EXTT9=
EXTT10=
EXTT11=
PLAYORDER=
